<svg width="25" height="25" viewBox="0 0 25 25" fill="none" xmlns="http://www.w3.org/2000/svg">
<path fill-rule="evenodd" clip-rule="evenodd" d="M13.3026 2.89608C14.3724 2.37248 15.3055 2.20001 16.7532 2.20003C20.4579 2.21537 23.2 5.33986 23.2 9.31989C23.2 12.3578 21.5061 15.2923 18.3511 18.1299C16.6951 19.6194 14.5807 21.0933 13.0664 21.8775L12.2 22.3261L11.3336 21.8775C9.8193 21.0933 7.70488 19.6194 6.04882 18.1299C2.89381 15.2923 1.19998 12.3578 1.19998 9.31989C1.19998 5.29728 3.91642 2.20001 7.65453 2.20001C9.05026 2.20001 10.0313 2.38879 11.1218 2.92815C11.5015 3.11593 11.8582 3.33867 12.19 3.59577C12.535 3.3234 12.9066 3.08994 13.3026 2.89608Z" fill="#FF0000"/>
</svg>
